<?xml version="1.0" standalone="no"?>
<!DOCTYPE svg PUBLIC "-//W3C//DTD SVG 20010904//EN"
 "http://www.w3.org/TR/2001/REC-SVG-20010904/DTD/svg10.dtd">
<svg version="1.0" xmlns="http://www.w3.org/2000/svg"
 width="700.000000pt" height="700.000000pt" viewBox="0 0 700.000000 700.000000"
 preserveAspectRatio="xMidYMid meet">
<metadata>
Created by potrace 1.14, written by Peter Selinger 2001-2017
</metadata>
<g transform="translate(0.000000,700.000000) scale(0.100000,-0.100000)"
fill="#000000" stroke="none">
<path d="M1107 6118 c-87 -18 -170 -86 -206 -168 -73 -166 28 -366 202 -399
29 -5 131 -12 227 -15 96 -4 189 -8 205 -10 17 -2 64 -7 105 -11 41 -3 82 -8
90 -10 8 -2 40 -7 70 -10 30 -3 62 -8 70 -10 8 -2 31 -7 50 -10 94 -15 293
-60 403 -91 67 -19 132 -36 144 -39 109 -25 474 -175 678 -278 189 -96 479
-271 585 -354 8 -6 60 -46 115 -89 197 -152 409 -349 570 -528 39 -43 75 -83
80 -90 105 -115 405 -533 405 -562 0 -4 6 -15 14 -23 8 -9 23 -32 33 -51 11
-19 33 -60 50 -90 58 -104 183 -360 183 -374 0 -3 11 -29 24 -58 112 -243 264
-789 291 -1048 3 -30 8 -62 10 -70 2 -8 7 -51 11 -95 3 -44 8 -89 10 -100 2
-11 6 -94 9 -185 9 -271 18 -313 89 -383 90 -90 217 -116 327 -65 68 31 115
78 147 147 21 46 25 69 26 155 0 97 -11 339 -18 401 -2 17 -8 66 -12 110 -4
44 -8 82 -9 85 -1 3 -5 30 -9 60 -4 30 -11 78 -16 105 -5 28 -12 64 -15 80 -5
31 -20 112 -28 155 -3 14 -10 45 -17 70 -7 25 -13 50 -14 55 -10 48 -22 95
-47 185 -146 517 -373 1003 -677 1450 -76 112 -243 332 -304 401 -13 15 -41
48 -63 75 -43 53 -338 351 -420 425 -490 442 -1131 811 -1765 1017 -93 30
-300 91 -330 97 -8 2 -55 13 -105 24 -49 12 -106 24 -125 27 -19 3 -51 9 -70
14 -19 5 -57 11 -85 15 -27 3 -57 8 -65 10 -23 7 -162 24 -320 40 -177 17
-449 24 -503 13z"/>
<path d="M1125 4080 c-141 -20 -249 -147 -248 -290 2 -108 54 -197 147 -250
57 -33 82 -38 251 -44 326 -14 621 -90 920 -236 401 -197 745 -513 969 -890
66 -111 166 -311 166 -333 0 -7 4 -17 9 -22 10 -12 75 -211 92 -281 6 -27 13
-58 15 -69 19 -78 45 -281 49 -390 8 -172 11 -189 42 -248 74 -135 244 -189
379 -121 70 35 128 100 150 167 33 96 14 399 -42 677 -24 122 -93 365 -123
435 -5 11 -25 61 -46 110 -217 525 -605 991 -1090 1310 -275 181 -643 341
-923 400 -9 2 -48 10 -87 18 -72 16 -104 21 -190 33 -27 3 -59 8 -70 10 -17 3
-134 11 -290 18 -22 1 -58 -1 -80 -4z"/>
<path d="M1322 2025 c-206 -49 -374 -216 -427 -424 -52 -200 5 -402 155 -551
164 -165 395 -217 609 -138 186 69 335 244 372 436 43 226 -60 468 -254 597
-93 62 -178 87 -297 90 -61 2 -127 -2 -158 -10z"/>
</g>
</svg>
